<svg xmlns="http://www.w3.org/2000/svg" version="1.1" xmlns:xlink="http://www.w3.org/1999/xlink"
  xmlns:svgjs="http://svgjs.com/svgjs" width="512" height="512" x="0" y="0" viewBox="0 0 512 512"
  style="enable-background:new 0 0 512 512" xml:space="preserve" class="">
  <g>
    <path xmlns="http://www.w3.org/2000/svg"
      d="M35.93,314.69c8.49,37,14.39,56.75,20.79,76.45,10.65,32.78,44.66,58.75,80.72,61.65,21.67,1.74,90.34,3,130.27,3s108-1.26,128.9-3c34.73-2.9,56.82-28.87,52.42-61.65-2.64-19.7-5.82-39.47-14.31-76.45s-14.38-56.76-20.78-76.46c-10.66-32.77-44.66-58.75-80.72-61.64-21.67-1.74-90.34-3-130.28-3-8.6,0-18.52,0-29,.16-12.85.14-25.73-9-29.57-20.85l0-.12c-4.89-15.05-20.5-27-37-28.3-10-.8-23.48-1.37-41.81-1.37s-31.59.57-41.17,1.37C8.37,125.81-1.76,137.73.25,152.78c1.22,9,7.26,38.11,11.16,55.08Z"
      fill="#000000" data-original="#000000" class=""></path>
    <path xmlns="http://www.w3.org/2000/svg"
      d="M460.17,120.42c-20.83-2.09-88.89-3.6-128.83-3.6-8.61,0-18.55.07-29.06.2-12.92.16-21.43-10.76-19.55-25l0-.15c2.34-18.06-7.53-32.38-23.45-34-9.56-1-22.81-1.66-41.14-1.66s-31.87.7-41.84,1.66c-16.58,1.59-32.45,15.91-37.66,34-1.08,3.73-2.72,10.3-4.59,18.14,14.55,7.7,26.16,20.65,31.16,36l0,.15c.81,2.49,4.93,5.65,8.41,5.65h0c10.74-.11,20.57-.17,29.21-.17,38.25,0,108.7,1.19,132,3.07,21.59,1.73,43.42,10.28,61.46,24,18.23,13.93,31.86,32.64,38.38,52.69,7,21.53,13,42.14,21.31,78.33,7.94,34.62,11.46,55,14.28,75.6.9-2.42,1.72-4.89,2.44-7.38,6.82-23.65,13.15-47.38,22.44-91.78s12.9-68.14,16-91.79C516.36,155.08,494.84,123.9,460.17,120.42Z"
      fill="#000000" data-original="#000000" class=""></path>
  </g>
</svg>
