<svg xmlns="http://www.w3.org/2000/svg" version="1.1" xmlns:xlink="http://www.w3.org/1999/xlink"
  xmlns:svgjs="http://svgjs.com/svgjs" width="512" height="512" x="0" y="0" viewBox="0 0 512 512"
  style="enable-background:new 0 0 512 512" xml:space="preserve" class="">
  <g>
    <path xmlns="http://www.w3.org/2000/svg"
      d="m500.074 322.563c-4.801-3.982-11.563-4.578-16.984-1.5-5.279 2.998-10.788 5.691-16.379 8.004-17.824 7.385-36.554 11.129-55.666 11.129-59.139 0-111.973-35.303-134.604-89.939-14.887-35.938-14.887-75.521-.001-111.459 14.886-35.936 42.875-63.926 78.809-78.811 5.606-2.32 11.407-4.313 17.243-5.92 6.012-1.656 10.371-6.859 10.949-13.068.58-6.209-2.743-12.129-8.345-14.867-34.955-17.097-73.905-26.132-112.639-26.132-33.607 0-66.518 6.574-97.819 19.537-63.16 26.164-112.352 75.356-138.514 138.516-26.163 63.16-26.163 132.727 0 195.887 19.753 47.688 52.929 87.799 95.941 115.998 41.972 27.517 90.595 42.062 140.611 42.062 33.617 0 66.539-6.576 97.849-19.547 67.776-28.072 120.321-84.014 144.16-153.477 2.024-5.898.188-12.433-4.611-16.413z"
      fill="#000000" data-original="#000000" class=""></path>
  </g>
</svg>
